<svg xmlns="http://www.w3.org/2000/svg" width="56" height="56" viewBox="0 0 56 56" fill="none">
  <g clip-path="url(#clip0_1_612)">
    <path d="M10.6936 40.4156C8.29027 37.863 6.99994 35 6.99994 30.359C6.99994 22.1923 12.7329 14.8726 21.0699 11.2536L23.1536 14.469C15.3719 18.6783 13.8506 24.1406 13.2439 27.5846C14.4969 26.936 16.1373 26.7096 17.7449 26.859C21.9543 27.2486 25.2723 30.7043 25.2723 35C25.2723 37.1659 24.4119 39.2431 22.8803 40.7747C21.3488 42.3062 19.2715 43.1666 17.1056 43.1666C14.6019 43.1666 12.2079 42.0233 10.6936 40.4156ZM34.0269 40.4156C31.6236 37.863 30.3333 35 30.3333 30.359C30.3333 22.1923 36.0663 14.8726 44.4033 11.2536L46.4869 14.469C38.7053 18.6783 37.1839 24.1406 36.5773 27.5846C37.8303 26.936 39.4706 26.7096 41.0783 26.859C45.2876 27.2486 48.6033 30.7043 48.6033 35C48.6033 37.1659 47.7429 39.2431 46.2113 40.7747C44.6798 42.3062 42.6025 43.1666 40.4366 43.1666C37.9329 43.1666 35.5389 42.0233 34.0246 40.4156H34.0269Z" fill="#939393"/>
  </g>
  <defs>
    <clipPath id="clip0_1_612">
      <rect width="56" height="56" fill="white" transform="matrix(-1 0 0 -1 56 56)"/>
    </clipPath>
  </defs>
</svg>